<svg id="Layer_1" data-name="Layer 1" xmlns="http://www.w3.org/2000/svg" viewBox="0 0 297.64 132.81"><defs><style>.cls-1{fill:#231f20;}</style></defs><path d="M42,65.27,62.43,18.52h9.49c1.13,20.32,2.25,40.52,3.39,61H66q-1.27-25.92-2.54-51.83l-.65-.17Q51.16,53.62,39.53,79.76l-1,.13L15.59,29.51l-.6.13L12.46,79.49H8.53Q10.2,49.1,11.88,18.68a14.73,14.73,0,0,1,1.7-.28c2.23,0,4.47,0,6.9,0C27.56,33.85,34.61,49.23,42,65.27Z"/><path d="M147.48,46.75a39.34,39.34,0,0,1-3.3,16.72c-6,13.39-22.29,18.34-32.82,17.19C96.6,79.06,87,68.34,86.66,52.77a50.88,50.88,0,0,1,1.48-13.3c4.25-16.82,20.91-23.12,34.26-22.07C136,18.47,146,28.46,147.22,42.27,147.37,43.92,147.42,45.59,147.48,46.75Zm-51.12.78c.07,9.35,1.44,15.56,4.06,20.64A18.38,18.38,0,0,0,130,72.25c9.07-9.69,10.43-32,2.63-43.06-6.25-8.86-17.73-10.6-26-3.74A28.65,28.65,0,0,0,96.36,47.53Z"/><path d="M282.8,64V20.1h3.8V82l-.59.43a19.19,19.19,0,0,1-2.09-1.93q-18.71-23.32-37.38-46.68c-.56-.7-1.16-1.38-2.22-2.65V81h-4V20h6.75l35,44.18Z"/><path class="cls-1" d="M21.81,112.1v7.42H20V103h1.86v7.32h9.51V103h1.86v16.49H31.32V112.1Z"/><path class="cls-1" d="M41,109a12,12,0,0,0-1.73.65l-.54-1.48a11.36,11.36,0,0,1,2-.74,9.56,9.56,0,0,1,2.38-.27A5.47,5.47,0,0,1,47,108.41a4.73,4.73,0,0,1,1.34,3.66v7.45H46.58v-1.84a5.93,5.93,0,0,1-1.71,1.46,5.22,5.22,0,0,1-2.69.63,5.79,5.79,0,0,1-1.66-.23,4.63,4.63,0,0,1-1.46-.72,3.71,3.71,0,0,1-1-1.19,3.41,3.41,0,0,1-.39-1.67,3.77,3.77,0,0,1,.38-1.71A3.41,3.41,0,0,1,39.08,113a5.23,5.23,0,0,1,1.65-.76,8.13,8.13,0,0,1,2.11-.26,13.66,13.66,0,0,1,2,.14,15.37,15.37,0,0,1,1.69.38v-.42a3.16,3.16,0,0,0-.95-2.49,4,4,0,0,0-2.68-.83A7.46,7.46,0,0,0,41,109Zm-.58,5a2.19,2.19,0,0,0-.92,1.86,2.12,2.12,0,0,0,.25,1,2.35,2.35,0,0,0,.67.77,3,3,0,0,0,1,.48,4.07,4.07,0,0,0,1.16.17,4.82,4.82,0,0,0,1.59-.25,4.18,4.18,0,0,0,1.29-.68,3.21,3.21,0,0,0,.87-1A2.8,2.8,0,0,0,46.6,115v-1.18c-.45-.12-1-.24-1.56-.35a10.88,10.88,0,0,0-2-.16A4.3,4.3,0,0,0,40.41,114Z"/><path class="cls-1" d="M55,119.52H53.2V107.34H55v2.12a5.68,5.68,0,0,1,1.6-1.68,4.34,4.34,0,0,1,2.57-.7,5.28,5.28,0,0,1,2,.35,4.07,4.07,0,0,1,1.46,1,4.48,4.48,0,0,1,.92,1.54,5.92,5.92,0,0,1,.31,2v7.56H62V112.4a3.91,3.91,0,0,0-.87-2.68,3.15,3.15,0,0,0-2.5-1,3.86,3.86,0,0,0-1.45.27,3.39,3.39,0,0,0-1.16.78,3.53,3.53,0,0,0-.77,1.21,4.33,4.33,0,0,0-.27,1.56Z"/><path class="cls-1" d="M78.49,119.52v-2.45a10.11,10.11,0,0,1-.83,1,5.72,5.72,0,0,1-1,.87,4.55,4.55,0,0,1-1.26.59,5.31,5.31,0,0,1-1.54.21,5.63,5.63,0,0,1-2.14-.42,5.51,5.51,0,0,1-1.87-1.24,6,6,0,0,1-1.31-2,7.43,7.43,0,0,1,0-5.36,6,6,0,0,1,1.31-2,5.69,5.69,0,0,1,1.87-1.25,5.58,5.58,0,0,1,3.69-.23,4.91,4.91,0,0,1,1.27.57,5.46,5.46,0,0,1,1,.82,8.17,8.17,0,0,1,.81,1v-7.35H80.3v17.2Zm-.29-8a4.75,4.75,0,0,0-1-1.47,4.66,4.66,0,0,0-1.42-1,4,4,0,0,0-1.63-.34,4.36,4.36,0,0,0-1.67.32,3.92,3.92,0,0,0-1.36.91,4.48,4.48,0,0,0-.92,1.48,5.55,5.55,0,0,0-.34,2,5.45,5.45,0,0,0,.34,1.94,4.59,4.59,0,0,0,.93,1.49,4.16,4.16,0,0,0,4.65.94,4.84,4.84,0,0,0,1.42-1,4.62,4.62,0,0,0,1-1.49,5.06,5.06,0,0,0,.36-1.93A5,5,0,0,0,78.2,111.49Z"/><path class="cls-1" d="M93.74,119.13a5.7,5.7,0,0,1-2.89.67,6,6,0,0,1-2.48-.51,6.15,6.15,0,0,1-3.29-3.38,6.48,6.48,0,0,1-.47-2.45,6.6,6.6,0,0,1,.47-2.46,6.44,6.44,0,0,1,1.31-2,6.14,6.14,0,0,1,2-1.38,6,6,0,0,1,2.48-.51,7,7,0,0,1,1.58.17,5.88,5.88,0,0,1,1.3.46,5.51,5.51,0,0,1,1.08.69,9.35,9.35,0,0,1,.92.85l-1.2,1.27a9.32,9.32,0,0,0-1.59-1.3,3.92,3.92,0,0,0-2.11-.54,4,4,0,0,0-1.72.37,4.21,4.21,0,0,0-1.39,1,4.77,4.77,0,0,0-.92,1.5,5.09,5.09,0,0,0-.33,1.84,5,5,0,0,0,.35,1.86,4.63,4.63,0,0,0,.94,1.52,4.44,4.44,0,0,0,1.41,1,4.32,4.32,0,0,0,1.78.36,4.07,4.07,0,0,0,2.08-.52,7,7,0,0,0,1.64-1.29l1.15,1.08A8.29,8.29,0,0,1,93.74,119.13Z"/><path class="cls-1" d="M101.64,119.52H99.83V107.34h1.81v3.18a6.44,6.44,0,0,1,.82-1.39,5.55,5.55,0,0,1,1.13-1.09,4.91,4.91,0,0,1,1.39-.7,4.84,4.84,0,0,1,1.63-.21v2h-.14a4.87,4.87,0,0,0-1.87.36,4.21,4.21,0,0,0-1.55,1.06,5,5,0,0,0-1,1.75,7.13,7.13,0,0,0-.38,2.41Z"/><path class="cls-1" d="M112.23,109a12.61,12.61,0,0,0-1.74.65l-.54-1.48a11.75,11.75,0,0,1,2-.74,9.5,9.5,0,0,1,2.38-.27,5.5,5.5,0,0,1,3.84,1.23,4.77,4.77,0,0,1,1.34,3.66v7.45h-1.74v-1.84a6.07,6.07,0,0,1-1.71,1.46,5.24,5.24,0,0,1-2.7.63,5.89,5.89,0,0,1-1.66-.23,4.74,4.74,0,0,1-1.46-.72,3.68,3.68,0,0,1-1-1.19,3.41,3.41,0,0,1-.39-1.67,3.77,3.77,0,0,1,.38-1.71,3.32,3.32,0,0,1,1.07-1.23,5.23,5.23,0,0,1,1.65-.76,8,8,0,0,1,2.1-.26,13.46,13.46,0,0,1,2.05.14,15.55,15.55,0,0,1,1.7.38v-.42a3.13,3.13,0,0,0-1-2.49,3.93,3.93,0,0,0-2.67-.83A7.41,7.41,0,0,0,112.23,109Zm-.58,5a2.16,2.16,0,0,0-.92,1.86,2,2,0,0,0,.25,1,2.24,2.24,0,0,0,.67.77,3,3,0,0,0,1,.48,4,4,0,0,0,1.16.17,4.9,4.9,0,0,0,1.59-.25,4.18,4.18,0,0,0,1.29-.68,3.48,3.48,0,0,0,.87-1,2.8,2.8,0,0,0,.31-1.33v-1.18c-.45-.12-1-.24-1.56-.35a11,11,0,0,0-2-.16A4.28,4.28,0,0,0,111.65,114Z"/><path class="cls-1" d="M130.77,107.39v1.55h-3.84v10.58h-1.81V108.94h-1.67v-1.58h1.67V106.3a4.35,4.35,0,0,1,.95-3,3.52,3.52,0,0,1,2.72-1,7,7,0,0,1,1.1.07,4.79,4.79,0,0,1,.9.24v1.57l-.89-.22a4.77,4.77,0,0,0-.87-.08c-1.42,0-2.12.86-2.12,2.59v1Z"/><path class="cls-1" d="M136.54,116.05a1.93,1.93,0,0,0,.56,1.58,2.34,2.34,0,0,0,1.49.45,3.54,3.54,0,0,0,.88-.1,3.94,3.94,0,0,0,.88-.32v1.55a4.16,4.16,0,0,1-1,.39,5.35,5.35,0,0,1-1.19.13,5,5,0,0,1-1.36-.19,2.93,2.93,0,0,1-1.1-.6,2.83,2.83,0,0,1-.71-1.07,4.19,4.19,0,0,1-.26-1.58v-7.35H133v-1.6h1.7v-3.67h1.81v3.67h3.86v1.6h-3.86Z"/><path class="cls-1" d="M145.84,115.85a4.14,4.14,0,0,0,2.29,2.1,4.32,4.32,0,0,0,1.53.27,4.77,4.77,0,0,0,2.18-.47,6.53,6.53,0,0,0,1.66-1.25l1.13,1a7.37,7.37,0,0,1-2.1,1.66,6.15,6.15,0,0,1-2.92.63,6.24,6.24,0,0,1-2.36-.46,5.92,5.92,0,0,1-1.93-1.3,6,6,0,0,1-1.32-2,6.6,6.6,0,0,1-.49-2.59A7,7,0,0,1,144,111a6.16,6.16,0,0,1,1.21-2,5.67,5.67,0,0,1,1.85-1.35,5.49,5.49,0,0,1,2.34-.5,5.43,5.43,0,0,1,2.4.51,5.09,5.09,0,0,1,1.79,1.38,5.92,5.92,0,0,1,1.11,2,8.31,8.31,0,0,1,.38,2.52v.26a1.71,1.71,0,0,1,0,.31h-9.63A5,5,0,0,0,145.84,115.85Zm7.33-3.09a6.35,6.35,0,0,0-.34-1.58,4.28,4.28,0,0,0-.75-1.32,3.62,3.62,0,0,0-1.17-.91,3.7,3.7,0,0,0-1.61-.34,3.44,3.44,0,0,0-1.47.32,3.93,3.93,0,0,0-1.2.87,4.75,4.75,0,0,0-.84,1.31,5.41,5.41,0,0,0-.42,1.65Z"/><path class="cls-1" d="M169,119.52v-2.45a10.11,10.11,0,0,1-.83,1,5.72,5.72,0,0,1-1,.87,4.55,4.55,0,0,1-1.26.59,5.31,5.31,0,0,1-1.54.21,5.72,5.72,0,0,1-2.15-.42,5.57,5.57,0,0,1-1.86-1.24,6,6,0,0,1-1.31-2,7.43,7.43,0,0,1,0-5.36,6,6,0,0,1,1.31-2,5.75,5.75,0,0,1,1.86-1.25,5.55,5.55,0,0,1,2.15-.44,5.43,5.43,0,0,1,1.55.21,4.91,4.91,0,0,1,1.27.57,5.46,5.46,0,0,1,1,.82,8.17,8.17,0,0,1,.81,1v-7.35h1.81v17.2Zm-.29-8a4.75,4.75,0,0,0-1-1.47,4.66,4.66,0,0,0-1.42-1,4,4,0,0,0-1.63-.34,4.36,4.36,0,0,0-1.67.32,3.92,3.92,0,0,0-1.36.91,4.48,4.48,0,0,0-.92,1.48,5.55,5.55,0,0,0-.34,2,5.45,5.45,0,0,0,.34,1.94,4.59,4.59,0,0,0,.93,1.49,4.16,4.16,0,0,0,4.65.94,4.84,4.84,0,0,0,1.42-1,4.62,4.62,0,0,0,1-1.49,5.06,5.06,0,0,0,.36-1.93A5,5,0,0,0,168.7,111.49Z"/><path class="cls-1" d="M197.05,118.09a8.1,8.1,0,0,1-1.5.91,9.06,9.06,0,0,1-1.71.59,9.29,9.29,0,0,1-2.05.21,8.1,8.1,0,0,1-3.3-.66,8,8,0,0,1-2.61-1.8,8.25,8.25,0,0,1-1.74-2.7,9,9,0,0,1-.62-3.34,8.91,8.91,0,0,1,.62-3.32,8.45,8.45,0,0,1,1.74-2.72,8,8,0,0,1,2.63-1.84,8.22,8.22,0,0,1,3.35-.67,9.66,9.66,0,0,1,2,.19,8,8,0,0,1,1.69.53,7.18,7.18,0,0,1,1.43.82,12.73,12.73,0,0,1,1.28,1.07L197,106.73a10.42,10.42,0,0,0-2.27-1.63,6.25,6.25,0,0,0-2.91-.63,6.16,6.16,0,0,0-4.55,2,6.64,6.64,0,0,0-1.35,2.16,7.28,7.28,0,0,0-.48,2.67,7.37,7.37,0,0,0,.48,2.68,6.58,6.58,0,0,0,1.35,2.17,6.24,6.24,0,0,0,2,1.45,6.1,6.1,0,0,0,2.53.53,6.42,6.42,0,0,0,2.92-.62,10.48,10.48,0,0,0,2.41-1.76l1.22,1.2A11.34,11.34,0,0,1,197.05,118.09Z"/><path class="cls-1" d="M204.15,119.52h-1.81V107.34h1.81v3.18a6.44,6.44,0,0,1,.82-1.39A5.55,5.55,0,0,1,206.1,108a4.91,4.91,0,0,1,1.39-.7,4.84,4.84,0,0,1,1.63-.21v2H209a5,5,0,0,0-1.88.36,4.26,4.26,0,0,0-1.54,1.06,5,5,0,0,0-1,1.75,6.89,6.89,0,0,0-.38,2.41Z"/><path class="cls-1" d="M223.83,115.88a6.52,6.52,0,0,1-1.34,2,6.25,6.25,0,0,1-2,1.38,6.33,6.33,0,0,1-2.54.51,6.17,6.17,0,0,1-2.52-.51,6.54,6.54,0,0,1-2-1.36,6.23,6.23,0,0,1-1.31-2,6.3,6.3,0,0,1-.48-2.45,6.42,6.42,0,0,1,.48-2.46,6.27,6.27,0,0,1,1.31-2,6.2,6.2,0,0,1,2-1.38,6.61,6.61,0,0,1,5.09,0,6.54,6.54,0,0,1,2,1.36,6.5,6.5,0,0,1,1.31,6.93Zm-1.72-4.28a4.68,4.68,0,0,0-1-1.52,4.56,4.56,0,0,0-1.43-1,4.29,4.29,0,0,0-1.79-.38,4.36,4.36,0,0,0-1.82.37,4.06,4.06,0,0,0-1.4,1,4.94,4.94,0,0,0-.91,1.5,5.09,5.09,0,0,0-.32,1.84,5,5,0,0,0,.34,1.86,4.44,4.44,0,0,0,.94,1.5,4.38,4.38,0,0,0,1.42,1,4.29,4.29,0,0,0,1.79.38,4.51,4.51,0,0,0,1.82-.36,4.35,4.35,0,0,0,1.41-1,4.72,4.72,0,0,0,.92-1.49,5.28,5.28,0,0,0,0-3.7Z"/><path class="cls-1" d="M237,119.13a5.7,5.7,0,0,1-2.89.67,6,6,0,0,1-2.48-.51,6.15,6.15,0,0,1-3.29-3.38,6.48,6.48,0,0,1-.47-2.45,6.6,6.6,0,0,1,.47-2.46,6.27,6.27,0,0,1,1.31-2,5.93,5.93,0,0,1,2-1.38,6,6,0,0,1,2.48-.51,7,7,0,0,1,1.58.17,5.62,5.62,0,0,1,1.29.46,5.3,5.3,0,0,1,1.09.69,10.64,10.64,0,0,1,.92.85l-1.21,1.27a8.61,8.61,0,0,0-1.59-1.3,3.86,3.86,0,0,0-2.1-.54,4,4,0,0,0-1.72.37,4.11,4.11,0,0,0-1.39,1,4.77,4.77,0,0,0-.92,1.5,5.09,5.09,0,0,0-.33,1.84,5,5,0,0,0,.34,1.86,4.8,4.8,0,0,0,.94,1.52,4.49,4.49,0,0,0,1.42,1,4.31,4.31,0,0,0,1.77.36,4.1,4.1,0,0,0,2.09-.52,7.24,7.24,0,0,0,1.64-1.29l1.15,1.08A8.47,8.47,0,0,1,237,119.13Z"/><path class="cls-1" d="M244.87,119.52h-1.82v-17.2h1.82v7.14a5.56,5.56,0,0,1,1.6-1.68,4.32,4.32,0,0,1,2.57-.7,5.23,5.23,0,0,1,2,.35,4.07,4.07,0,0,1,1.46,1,4.33,4.33,0,0,1,.92,1.54,5.92,5.92,0,0,1,.32,2v7.56h-1.82V112.4a3.91,3.91,0,0,0-.87-2.68,3.14,3.14,0,0,0-2.49-1,3.86,3.86,0,0,0-1.45.27,3.34,3.34,0,0,0-1.17.78,3.51,3.51,0,0,0-.76,1.21,4.33,4.33,0,0,0-.27,1.56Z"/><path class="cls-1" d="M260.15,115.85a4.16,4.16,0,0,0,2.28,2.1,4.42,4.42,0,0,0,1.54.27,4.7,4.7,0,0,0,2.17-.47,6.2,6.2,0,0,0,1.66-1.25l1.13,1a7.2,7.2,0,0,1-2.09,1.66,6.15,6.15,0,0,1-2.92.63,6.24,6.24,0,0,1-2.36-.46,5.92,5.92,0,0,1-1.93-1.3,5.86,5.86,0,0,1-1.32-2,6.6,6.6,0,0,1-.49-2.59,7,7,0,0,1,.43-2.48,6.18,6.18,0,0,1,1.22-2,5.67,5.67,0,0,1,1.85-1.35,5.81,5.81,0,0,1,4.74,0,5.19,5.19,0,0,1,1.79,1.38,5.92,5.92,0,0,1,1.11,2,8.3,8.3,0,0,1,.37,2.52v.26a1.67,1.67,0,0,1,0,.31h-9.63A5,5,0,0,0,260.15,115.85Zm7.32-3.09a5.93,5.93,0,0,0-.34-1.58,4.06,4.06,0,0,0-.74-1.32,3.62,3.62,0,0,0-1.17-.91,3.74,3.74,0,0,0-1.61-.34,3.44,3.44,0,0,0-1.47.32,3.81,3.81,0,0,0-1.2.87,4.75,4.75,0,0,0-.84,1.31,5.41,5.41,0,0,0-.42,1.65Z"/><path class="cls-1" d="M276,116.05a1.9,1.9,0,0,0,.57,1.58,2.31,2.31,0,0,0,1.48.45,3.62,3.62,0,0,0,.89-.1,4.12,4.12,0,0,0,.88-.32v1.55a4.33,4.33,0,0,1-1,.39,5.35,5.35,0,0,1-1.19.13,5,5,0,0,1-1.37-.19,3,3,0,0,1-1.09-.6,2.73,2.73,0,0,1-.72-1.07,4.39,4.39,0,0,1-.26-1.58v-7.35h-1.69v-1.6h1.69v-3.67H276v3.67h3.87v1.6H276Z"/><circle class="cls-1" cx="140.45" cy="84.56" r="2.35"/><path class="cls-1" d="M230.38,42.74c-3-18.56-20.86-31.74-39.78-29.47-24.27,2.91-38.7,29-28.28,51.06,1.84,3.89,3.57,5.17,6.19,4.59s3.35-2.26,3.51-6.54c.67-17.51,7.86-31.62,21.87-42.29,3.21-2.43,6.08-1.39,9.65-.5-1.1.87-1.8,1.44-2.52,2A58,58,0,0,0,181,49.2c-2.93,8.23-3.36,16.72-2.87,25.32.15,2.46-.44,4.53-3,5.42s-4.17-.54-5.61-2.53A9.47,9.47,0,0,0,154,77.14c-1.59,2.13-3.06,3.81-5.91,3.94H148a2.48,2.48,0,0,0,0,5,2.6,2.6,0,0,0,.74-.12A9,9,0,0,0,157.12,82c3.24-4.58,5.54-4.67,9-.34a9.79,9.79,0,0,0,11,3.22,9.5,9.5,0,0,0,6.24-9c0-1.82,0-3.65-.07-5.48a53,53,0,0,1,14.15-38.5,48.64,48.64,0,0,1,12.34-9.81l5.1,3.55c-.93.75-1.55,1.28-2.2,1.78a57.65,57.65,0,0,0-19,25.67,56.92,56.92,0,0,0-3.11,28.67c.32,2.21,1.39,3.27,3.64,3.1a65.22,65.22,0,0,0,7.94-.6A36.1,36.1,0,0,0,230.38,42.74ZM166.69,60.16c-7.22-15.7,2.85-35.9,18.82-40C174.17,31.27,167.89,44.32,166.69,60.16Zm52-30.6,3.28,4.9a49.49,49.49,0,0,1-22.46,19.26A50.52,50.52,0,0,1,218.69,29.56ZM195.55,79.28c-.11-1.63-.23-3.32-.37-5.18a59.62,59.62,0,0,0,28.34-15.89C222.36,68.36,208.27,80.41,195.55,79.28Zm28-29.07a54.29,54.29,0,0,1-28.17,18.46c.48-2.84.88-5.17,1.28-7.56A60.27,60.27,0,0,0,224.21,40.8C225.43,44.39,226,47.21,223.54,50.21Z"/></svg>