<svg id="Layer_1" data-name="Layer 1" xmlns="http://www.w3.org/2000/svg" viewBox="0 0 297.64 132.81"><defs><style>.cls-1{fill:#fff;}.cls-2{fill:#231f20;}</style></defs><path d="M42,62.72C49,46.66,55.71,31.31,62.43,16h9.49c1.13,20.32,2.25,40.53,3.39,61H66Q64.72,51,63.45,25.11l-.65-.17Q51.16,51.08,39.53,77.21l-1,.13L15.59,27l-.6.13L12.46,76.94H8.53q1.67-30.37,3.35-60.8a11.35,11.35,0,0,1,1.7-.28c2.23,0,4.47,0,6.9,0Z"/><path d="M147.48,44.2a39.31,39.31,0,0,1-3.3,16.72c-6,13.39-22.29,18.35-32.82,17.2C96.6,76.51,87,65.8,86.66,50.22a50.81,50.81,0,0,1,1.48-13.29c4.25-16.82,20.91-23.12,34.26-22.08C136,15.92,146,25.92,147.22,39.73,147.37,41.38,147.42,43,147.48,44.2ZM96.36,45c.07,9.35,1.44,15.56,4.06,20.65A18.39,18.39,0,0,0,130,69.7C139,60,140.4,37.7,132.6,26.64c-6.25-8.85-17.73-10.59-26-3.73A28.62,28.62,0,0,0,96.36,45Z"/><path d="M282.8,61.45V17.55h3.8V79.44l-.59.43a19.19,19.19,0,0,1-2.09-1.93q-18.71-23.32-37.38-46.67c-.56-.71-1.16-1.39-2.22-2.65V78.49h-4v-61h6.75l35,44.19Z"/><path class="cls-1" d="M195.37,66.12c.48-2.84.88-5.16,1.28-7.55a60.29,60.29,0,0,0,27.56-20.32c1.22,3.59,1.8,6.42-.67,9.42A54.21,54.21,0,0,1,195.37,66.12Z"/><path class="cls-1" d="M199.51,51.17A50.5,50.5,0,0,1,218.69,27L222,31.91A49.43,49.43,0,0,1,199.51,51.17Z"/><path class="cls-1" d="M166.69,57.61c-7.22-15.69,2.85-35.89,18.82-40C174.17,28.73,167.89,41.78,166.69,57.61Z"/><path class="cls-1" d="M195.55,76.74c-.11-1.64-.23-3.33-.37-5.18a59.71,59.71,0,0,0,28.34-15.89C222.36,65.82,208.27,77.86,195.55,76.74Z"/><path class="cls-1" d="M96.36,45a28.62,28.62,0,0,1,10.2-22.07c8.31-6.86,19.79-5.12,26,3.73C140.4,37.7,139,60,130,69.7a18.39,18.39,0,0,1-29.55-4.07C97.8,60.54,96.43,54.33,96.36,45Z"/><path class="cls-2" d="M21.81,109.55V117H20V100.49h1.86v7.32h9.51v-7.32h1.86V117H31.32v-7.42Z"/><path class="cls-2" d="M41,106.48a10,10,0,0,0-1.73.65l-.54-1.49a12.19,12.19,0,0,1,2-.74,9.56,9.56,0,0,1,2.38-.27A5.42,5.42,0,0,1,47,105.87a4.7,4.7,0,0,1,1.34,3.66V117H46.58v-1.84a5.78,5.78,0,0,1-1.71,1.46,5.13,5.13,0,0,1-2.69.64,5.8,5.8,0,0,1-1.66-.24,4.41,4.41,0,0,1-1.46-.71,3.82,3.82,0,0,1-1-1.19,3.42,3.42,0,0,1-.39-1.68,3.7,3.7,0,0,1,.38-1.7,3.36,3.36,0,0,1,1.07-1.24,5,5,0,0,1,1.65-.75,7.72,7.72,0,0,1,2.11-.26,13.66,13.66,0,0,1,2,.14,13.37,13.37,0,0,1,1.69.38v-.43a3.12,3.12,0,0,0-.95-2.48,3.93,3.93,0,0,0-2.68-.84A7.05,7.05,0,0,0,41,106.48Zm-.58,5a2.21,2.21,0,0,0-.92,1.86,2.16,2.16,0,0,0,.25,1,2.45,2.45,0,0,0,.67.77,3,3,0,0,0,1,.48,4.06,4.06,0,0,0,1.16.16,5.09,5.09,0,0,0,1.59-.24,4.42,4.42,0,0,0,1.29-.69,3.17,3.17,0,0,0,.87-1,2.83,2.83,0,0,0,.31-1.33v-1.18c-.45-.13-1-.24-1.56-.36a11.83,11.83,0,0,0-2-.16A4.36,4.36,0,0,0,40.41,111.48Z"/><path class="cls-2" d="M55,117H53.2V104.8H55v2.11a5.68,5.68,0,0,1,1.6-1.68,4.41,4.41,0,0,1,2.57-.69,5.09,5.09,0,0,1,2,.35,4,4,0,0,1,1.46,1,4.58,4.58,0,0,1,.92,1.54,6,6,0,0,1,.31,2V117H62v-7.11a3.94,3.94,0,0,0-.87-2.69,3.15,3.15,0,0,0-2.5-1,3.86,3.86,0,0,0-1.45.27,3.54,3.54,0,0,0-1.16.78,3.48,3.48,0,0,0-.77,1.22A4.27,4.27,0,0,0,55,110Z"/><path class="cls-2" d="M78.49,117v-2.45a10.22,10.22,0,0,1-.83,1,5.72,5.72,0,0,1-1,.87,4.86,4.86,0,0,1-1.26.59,5.31,5.31,0,0,1-1.54.21,5.63,5.63,0,0,1-2.14-.42,5.82,5.82,0,0,1-1.87-1.24,6,6,0,0,1-1.31-2,7.46,7.46,0,0,1,0-5.37,6,6,0,0,1,1.31-2A5.85,5.85,0,0,1,71.69,105a5.65,5.65,0,0,1,3.69-.22,5.25,5.25,0,0,1,1.27.56,5.51,5.51,0,0,1,1,.83,6.87,6.87,0,0,1,.81,1V99.78H80.3V117Zm-.29-8a4.69,4.69,0,0,0-1-1.48,4.84,4.84,0,0,0-1.42-1,4.18,4.18,0,0,0-1.63-.34,4.36,4.36,0,0,0-1.67.32,4.06,4.06,0,0,0-1.36.91,4.59,4.59,0,0,0-.92,1.48,5.63,5.63,0,0,0-.34,2,5.46,5.46,0,0,0,.34,1.95,4.66,4.66,0,0,0,.93,1.48,4,4,0,0,0,1.37,1,4.19,4.19,0,0,0,1.65.33,4,4,0,0,0,1.63-.34,4.66,4.66,0,0,0,1.42-.95,4.52,4.52,0,0,0,1-1.49,5,5,0,0,0,.36-1.93A5,5,0,0,0,78.2,109Z"/><path class="cls-2" d="M93.74,116.58a5.7,5.7,0,0,1-2.89.67,6.17,6.17,0,0,1-2.48-.5,6.44,6.44,0,0,1-2-1.37,6.24,6.24,0,0,1-1.31-2,6.65,6.65,0,0,1,0-4.91,6.38,6.38,0,0,1,1.31-2,6.3,6.3,0,0,1,2-1.38,6,6,0,0,1,2.48-.5,7,7,0,0,1,1.58.16,5.88,5.88,0,0,1,1.3.46,6.62,6.62,0,0,1,1.08.69,9.35,9.35,0,0,1,.92.85L94.53,108a8.81,8.81,0,0,0-1.59-1.29,3.92,3.92,0,0,0-2.11-.54,4.14,4.14,0,0,0-1.72.36,4.21,4.21,0,0,0-1.39,1A4.71,4.71,0,0,0,86.8,109a5.05,5.05,0,0,0-.33,1.84,5,5,0,0,0,.35,1.86,4.69,4.69,0,0,0,.94,1.51A4.24,4.24,0,0,0,91,115.6a4.16,4.16,0,0,0,2.08-.51,7.07,7.07,0,0,0,1.64-1.3l1.15,1.08A7.88,7.88,0,0,1,93.74,116.58Z"/><path class="cls-2" d="M101.64,117H99.83V104.8h1.81V108a6.37,6.37,0,0,1,.82-1.38,5.6,5.6,0,0,1,1.13-1.1,4.63,4.63,0,0,1,1.39-.69,5.1,5.1,0,0,1,1.63-.22v2h-.14a5.05,5.05,0,0,0-1.87.35,4.33,4.33,0,0,0-1.55,1.06,5,5,0,0,0-1,1.76,7.09,7.09,0,0,0-.38,2.41Z"/><path class="cls-2" d="M112.23,106.48a10.47,10.47,0,0,0-1.74.65l-.54-1.49a12.62,12.62,0,0,1,2-.74,9.5,9.5,0,0,1,2.38-.27,5.46,5.46,0,0,1,3.84,1.24,4.74,4.74,0,0,1,1.34,3.66V117h-1.74v-1.84a5.91,5.91,0,0,1-1.71,1.46,5.14,5.14,0,0,1-2.7.64,5.9,5.9,0,0,1-1.66-.24,4.51,4.51,0,0,1-1.46-.71,3.79,3.79,0,0,1-1-1.19,3.42,3.42,0,0,1-.39-1.68,3.7,3.7,0,0,1,.38-1.7,3.27,3.27,0,0,1,1.07-1.24,5,5,0,0,1,1.65-.75,7.65,7.65,0,0,1,2.1-.26,12.52,12.52,0,0,1,3.75.52v-.43a3.1,3.1,0,0,0-1-2.48,3.89,3.89,0,0,0-2.67-.84A7,7,0,0,0,112.23,106.48Zm-.58,5a2.19,2.19,0,0,0-.92,1.86,2.05,2.05,0,0,0,.25,1,2.33,2.33,0,0,0,.67.77,3,3,0,0,0,1,.48,4,4,0,0,0,1.16.16,5.19,5.19,0,0,0,1.59-.24,4.42,4.42,0,0,0,1.29-.69,3.44,3.44,0,0,0,.87-1,2.83,2.83,0,0,0,.31-1.33v-1.18c-.45-.13-1-.24-1.56-.36a12,12,0,0,0-2-.16A4.35,4.35,0,0,0,111.65,111.48Z"/><path class="cls-2" d="M130.77,104.84v1.56h-3.84V117h-1.81V106.4h-1.67v-1.58h1.67v-1.06a4.36,4.36,0,0,1,.95-3,3.52,3.52,0,0,1,2.72-1,6.89,6.89,0,0,1,1.1.08,4.1,4.1,0,0,1,.9.23v1.58c-.33-.1-.62-.17-.89-.23a4.77,4.77,0,0,0-.87-.08c-1.42,0-2.12.87-2.12,2.59v1Z"/><path class="cls-2" d="M136.54,113.51a1.94,1.94,0,0,0,.56,1.58,2.4,2.4,0,0,0,1.49.44,4.1,4.1,0,0,0,.88-.09,3.55,3.55,0,0,0,.88-.33v1.55a3.47,3.47,0,0,1-1,.39,4.82,4.82,0,0,1-1.19.13,4.61,4.61,0,0,1-1.36-.19,2.68,2.68,0,0,1-1.1-.6,2.75,2.75,0,0,1-.71-1.07,4.15,4.15,0,0,1-.26-1.58V106.4H133v-1.6h1.7v-3.68h1.81v3.68h3.86v1.6h-3.86Z"/><path class="cls-2" d="M145.84,113.31a4.06,4.06,0,0,0,1,1.29,3.9,3.9,0,0,0,1.32.8,4.11,4.11,0,0,0,1.53.27,4.64,4.64,0,0,0,2.18-.47A6.72,6.72,0,0,0,153.5,114l1.13,1a7.74,7.74,0,0,1-2.1,1.66,6.28,6.28,0,0,1-2.92.62,6.05,6.05,0,0,1-2.36-.46,5.74,5.74,0,0,1-1.93-1.29,6.15,6.15,0,0,1-1.32-2,6.57,6.57,0,0,1-.49-2.59,7.07,7.07,0,0,1,.44-2.48,6.26,6.26,0,0,1,1.21-2A5.67,5.67,0,0,1,147,105a5.48,5.48,0,0,1,2.34-.49,5.42,5.42,0,0,1,2.4.5,5.21,5.21,0,0,1,1.79,1.38,5.88,5.88,0,0,1,1.11,2A8.21,8.21,0,0,1,155,111v.26a1.69,1.69,0,0,1,0,.3h-9.63A5,5,0,0,0,145.84,113.31Zm7.33-3.1a6.45,6.45,0,0,0-.34-1.58,4.28,4.28,0,0,0-.75-1.32,3.74,3.74,0,0,0-1.17-.9,3.57,3.57,0,0,0-1.61-.34,3.43,3.43,0,0,0-1.47.31,4.13,4.13,0,0,0-1.2.88,4.55,4.55,0,0,0-.84,1.3,5.48,5.48,0,0,0-.42,1.65Z"/><path class="cls-2" d="M169,117v-2.45a10.22,10.22,0,0,1-.83,1,5.72,5.72,0,0,1-1,.87,4.86,4.86,0,0,1-1.26.59,5.31,5.31,0,0,1-1.54.21,5.72,5.72,0,0,1-2.15-.42,5.88,5.88,0,0,1-1.86-1.24,6,6,0,0,1-1.31-2,7.46,7.46,0,0,1,0-5.37,5.86,5.86,0,0,1,3.17-3.24,5.54,5.54,0,0,1,2.15-.43,5.43,5.43,0,0,1,1.55.21,5.25,5.25,0,0,1,1.27.56,5.51,5.51,0,0,1,1,.83,6.87,6.87,0,0,1,.81,1V99.78h1.81V117Zm-.29-8a4.69,4.69,0,0,0-1-1.48,4.84,4.84,0,0,0-1.42-1,4.18,4.18,0,0,0-1.63-.34,4.36,4.36,0,0,0-1.67.32,4.06,4.06,0,0,0-1.36.91,4.59,4.59,0,0,0-.92,1.48,5.63,5.63,0,0,0-.34,2,5.46,5.46,0,0,0,.34,1.95,4.66,4.66,0,0,0,.93,1.48,4,4,0,0,0,1.37,1,4.19,4.19,0,0,0,1.65.33,4,4,0,0,0,1.63-.34,4.66,4.66,0,0,0,1.42-.95,4.52,4.52,0,0,0,1-1.49,5,5,0,0,0,.36-1.93A5,5,0,0,0,168.7,109Z"/><path class="cls-2" d="M197.05,115.55a8.06,8.06,0,0,1-1.5.9,8.41,8.41,0,0,1-1.71.59,9.29,9.29,0,0,1-2.05.21,8.1,8.1,0,0,1-3.3-.66,8,8,0,0,1-2.61-1.8,8.31,8.31,0,0,1-1.74-2.69,9.07,9.07,0,0,1-.62-3.35,9,9,0,0,1,.62-3.32,8.56,8.56,0,0,1,1.74-2.72,8,8,0,0,1,2.63-1.84,8.38,8.38,0,0,1,3.35-.67,10.38,10.38,0,0,1,2,.19,8.56,8.56,0,0,1,1.69.53,7.22,7.22,0,0,1,1.43.83,11.52,11.52,0,0,1,1.28,1.07L197,104.18a10,10,0,0,0-2.27-1.62,6.13,6.13,0,0,0-2.91-.64,6.26,6.26,0,0,0-2.53.52,6.07,6.07,0,0,0-2,1.44,6.7,6.7,0,0,0-1.35,2.15,7.72,7.72,0,0,0,0,5.36,6.8,6.8,0,0,0,1.35,2.17,6.21,6.21,0,0,0,2,1.44,6,6,0,0,0,2.53.53,6.29,6.29,0,0,0,2.92-.62,10.19,10.19,0,0,0,2.41-1.76l1.22,1.21A12.32,12.32,0,0,1,197.05,115.55Z"/><path class="cls-2" d="M204.15,117h-1.81V104.8h1.81V108a6.37,6.37,0,0,1,.82-1.38,5.6,5.6,0,0,1,1.13-1.1,4.63,4.63,0,0,1,1.39-.69,5.1,5.1,0,0,1,1.63-.22v2H209a5.15,5.15,0,0,0-1.88.35,4.38,4.38,0,0,0-1.54,1.06,5,5,0,0,0-1,1.76,6.85,6.85,0,0,0-.38,2.41Z"/><path class="cls-2" d="M223.83,113.33a6.45,6.45,0,0,1-1.34,2,6.25,6.25,0,0,1-2,1.38,6.5,6.5,0,0,1-2.54.5,6.33,6.33,0,0,1-2.52-.5,6.57,6.57,0,0,1-2-1.37,6.08,6.08,0,0,1-1.31-2,6.52,6.52,0,0,1,0-4.91,6.21,6.21,0,0,1,1.31-2,6.26,6.26,0,0,1,4.57-1.88,6.29,6.29,0,0,1,2.54.5,6.57,6.57,0,0,1,2,1.37,6.27,6.27,0,0,1,1.32,2,6.51,6.51,0,0,1,.47,2.45A6.42,6.42,0,0,1,223.83,113.33Zm-1.72-4.28a4.64,4.64,0,0,0-1-1.51,4.59,4.59,0,0,0-1.43-1,4.28,4.28,0,0,0-1.79-.37,4.51,4.51,0,0,0-1.82.36,4.06,4.06,0,0,0-1.4,1,4.87,4.87,0,0,0-.91,1.51,5,5,0,0,0-.32,1.84,5,5,0,0,0,.34,1.86,4.5,4.5,0,0,0,2.36,2.51,4.28,4.28,0,0,0,1.79.37,4.51,4.51,0,0,0,1.82-.36,4.07,4.07,0,0,0,1.41-1,4.62,4.62,0,0,0,.92-1.49,5.09,5.09,0,0,0,.33-1.84A5.21,5.21,0,0,0,222.11,109.05Z"/><path class="cls-2" d="M237,116.58a5.7,5.7,0,0,1-2.89.67,6.12,6.12,0,0,1-4.46-1.87,6.08,6.08,0,0,1-1.31-2,6.65,6.65,0,0,1,0-4.91,6.21,6.21,0,0,1,1.31-2,6.08,6.08,0,0,1,2-1.38,6,6,0,0,1,2.48-.5,7,7,0,0,1,1.58.16,5.62,5.62,0,0,1,1.29.46,6.31,6.31,0,0,1,1.09.69,10.64,10.64,0,0,1,.92.85L237.75,108a8.17,8.17,0,0,0-1.59-1.29,3.86,3.86,0,0,0-2.1-.54,4.15,4.15,0,0,0-3.11,1.37A4.71,4.71,0,0,0,230,109a5.05,5.05,0,0,0-.33,1.84,5,5,0,0,0,.34,1.86,4.87,4.87,0,0,0,.94,1.51,4.28,4.28,0,0,0,3.19,1.37,4.2,4.2,0,0,0,2.09-.51,7.28,7.28,0,0,0,1.64-1.3l1.15,1.08A8,8,0,0,1,237,116.58Z"/><path class="cls-2" d="M244.87,117h-1.82V99.78h1.82v7.13a5.56,5.56,0,0,1,1.6-1.68,4.39,4.39,0,0,1,2.57-.69,5,5,0,0,1,2,.35,4,4,0,0,1,1.46,1,4.42,4.42,0,0,1,.92,1.54,6,6,0,0,1,.32,2V117h-1.82v-7.11a3.94,3.94,0,0,0-.87-2.69,3.14,3.14,0,0,0-2.49-1,3.86,3.86,0,0,0-1.45.27,3.37,3.37,0,0,0-1.93,2,4.27,4.27,0,0,0-.27,1.55Z"/><path class="cls-2" d="M260.15,113.31a4.06,4.06,0,0,0,1,1.29,4,4,0,0,0,1.31.8,4.2,4.2,0,0,0,1.54.27,4.57,4.57,0,0,0,2.17-.47A6.37,6.37,0,0,0,267.8,114l1.13,1a7.55,7.55,0,0,1-2.09,1.66,6.28,6.28,0,0,1-2.92.62,6.05,6.05,0,0,1-2.36-.46,5.74,5.74,0,0,1-1.93-1.29,6,6,0,0,1-1.32-2,6.57,6.57,0,0,1-.49-2.59,7.07,7.07,0,0,1,.43-2.48,6.28,6.28,0,0,1,1.22-2,5.67,5.67,0,0,1,1.85-1.35,5.92,5.92,0,0,1,4.74,0,5.31,5.31,0,0,1,1.79,1.38,5.88,5.88,0,0,1,1.11,2,8.21,8.21,0,0,1,.37,2.52v.26a1.62,1.62,0,0,1,0,.3h-9.63A5,5,0,0,0,260.15,113.31Zm7.32-3.1a6,6,0,0,0-.34-1.58,4.06,4.06,0,0,0-.74-1.32,3.74,3.74,0,0,0-1.17-.9,3.6,3.6,0,0,0-1.61-.34,3.43,3.43,0,0,0-1.47.31,4,4,0,0,0-1.2.88,4.55,4.55,0,0,0-.84,1.3,5.48,5.48,0,0,0-.42,1.65Z"/><path class="cls-2" d="M276,113.51a1.91,1.91,0,0,0,.57,1.58,2.37,2.37,0,0,0,1.48.44,4.19,4.19,0,0,0,.89-.09,3.7,3.7,0,0,0,.88-.33v1.55a3.59,3.59,0,0,1-1,.39,4.82,4.82,0,0,1-1.19.13,4.68,4.68,0,0,1-1.37-.19,2.71,2.71,0,0,1-1.09-.6,2.66,2.66,0,0,1-.72-1.07,4.35,4.35,0,0,1-.26-1.58V106.4h-1.69v-1.6h1.69v-3.68H276v3.68h3.87v1.6H276Z"/><circle class="cls-2" cx="140.45" cy="82.01" r="2.35"/><path class="cls-2" d="M230.38,40.19c-3-18.55-20.86-31.74-39.78-29.47-24.27,2.91-38.7,29-28.28,51.06,1.84,3.89,3.57,5.17,6.19,4.6s3.35-2.26,3.51-6.55c.67-17.51,7.86-31.61,21.87-42.28,3.21-2.44,6.08-1.4,9.65-.5-1.1.86-1.8,1.43-2.52,2a58,58,0,0,0-20,27.63c-2.93,8.23-3.36,16.73-2.87,25.33.15,2.46-.44,4.53-3,5.41s-4.17-.54-5.61-2.52A9.47,9.47,0,0,0,154,74.6c-1.59,2.12-3.06,3.8-5.91,3.93H148a2.48,2.48,0,0,0,0,5,2.6,2.6,0,0,0,.74-.12,9,9,0,0,0,8.39-3.9c3.24-4.59,5.54-4.67,9-.34a9.82,9.82,0,0,0,11,3.22,9.51,9.51,0,0,0,6.24-9c0-1.83,0-3.66-.07-5.48A53.07,53.07,0,0,1,197.4,29.32a48.61,48.61,0,0,1,12.34-9.8l5.1,3.54c-.93.76-1.55,1.29-2.2,1.78a57.74,57.74,0,0,0-19,25.68,56.9,56.9,0,0,0-3.11,28.67c.32,2.21,1.39,3.26,3.64,3.09a65.22,65.22,0,0,0,7.94-.59A36.11,36.11,0,0,0,230.38,40.19ZM166.69,57.61c-7.22-15.69,2.85-35.89,18.82-40C174.17,28.73,167.89,41.78,166.69,57.61Zm52-30.59L222,31.91a49.43,49.43,0,0,1-22.46,19.26A50.5,50.5,0,0,1,218.69,27ZM195.55,76.74c-.11-1.64-.23-3.33-.37-5.18a59.71,59.71,0,0,0,28.34-15.89C222.36,65.82,208.27,77.86,195.55,76.74Zm28-29.07a54.21,54.21,0,0,1-28.17,18.45c.48-2.84.88-5.16,1.28-7.55a60.29,60.29,0,0,0,27.56-20.32C225.43,41.84,226,44.67,223.54,47.67Z"/></svg>